<?xml version="1.0" encoding="utf-8"?>
<!-- Generator: Adobe Illustrator 24.1.1, SVG Export Plug-In . SVG Version: 6.00 Build 0)  -->
<svg version="1.1" id="Layer_1" xmlns="http://www.w3.org/2000/svg" xmlns:xlink="http://www.w3.org/1999/xlink" x="0px" y="0px"
	 viewBox="0 0 512 512" style="enable-background:new 0 0 512 512;" xml:space="preserve">
<g>
	<path d="M254.7,80.4c-44.1,0-79.8,41.7-79.8,93.2c0,35.7,17.2,66.7,42.4,82.4L188,269.6l-77.9,36.1c-7.5,3.8-11.3,10.1-11.3,19.2
		c0,28.6,0,57.2,0,85.8c0.6,10.7,7.1,20.7,17.5,20.9h277.2c11.9-1,17.9-10.6,18.1-20.9c0-28.6,0-57.2,0-85.8c0-9-3.8-15.4-11.3-19.2
		l-75.1-36.1l-31.2-14.8c24.2-16,40.6-46.3,40.6-81.2C334.5,122.2,298.7,80.4,254.7,80.4z M125.9,113.2c-19,0.7-34,8.9-45.4,22
		c-12.6,15.8-18.8,34.5-18.9,53.1c0.8,27.5,13.1,53.6,35,67.2L9,296.1c-6,2.3-9,7.5-9,15.8v68.9c0.5,9.1,5.2,16.8,14.1,16.9h58.1
		v-72.8c1-19.5,10.1-35.2,26.5-42.9l58.1-27.7c4.5-2.6,8.8-6.2,13-10.7c-24-37-27.3-81.3-11.8-120.2
		C148,117.2,136.7,113.3,125.9,113.2z M385.5,113.2c-12.4,0.3-23.9,4.8-33.3,11.3c15,39.3,10.9,83.6-11.3,118c4.9,5.6,10,10,15.3,13
		l55.9,26.5c17,9.3,25.8,25.2,26,42.9v72.8h59.8c9.8-0.8,14-8.7,14.1-16.9v-68.9c0-7.5-3-12.8-9-15.8l-86.4-41.2
		c22.4-16.5,33.6-41.3,33.9-66.6c-0.6-20.1-6.7-38.7-18.9-53.1C418.8,121.4,403,113.3,385.5,113.2L385.5,113.2z"/>
</g>
</svg>
